<?xml version="1.0" encoding="UTF-8"?>
<svg version="1.1" xmlns="http://www.w3.org/2000/svg" width="512" height="512">
<path d="M0 0 C0.66725098 0.13921875 1.33450195 0.2784375 2.02197266 0.421875 C25.44375753 5.52821417 46.9824737 17.99862589 64.24609375 34.421875 C66.12857283 36.18419584 68.07937568 37.8755392 70.08203125 39.5 C72.89319225 41.90849135 75.01535539 44.31153031 77.25 47.25 C79.68378698 50.65489653 79.68378698 50.65489653 83 53 C83.66666667 54.33333333 84.33333333 55.66666667 85 57 C85.9793879 58.02019573 86.97895449 59.02149805 88 60 C90 63 90 63 91 65 C91.66 65 92.32 65 93 65 C94.43299305 67.62715392 95.86450849 70.25497226 97.2890625 72.88671875 C98.34054857 74.80003929 99.41401926 76.70170957 100.5234375 78.58203125 C104.52240252 85.46913768 107.08147129 92.54375714 109.625 100.05078125 C110.64801979 103.05028091 111.7843867 105.93751289 113.125 108.8125 C121.24257991 126.73180504 122.71502929 146.50883131 122 166 C122.66 166 123.32 166 124 166 C125.41930066 178.27948517 126.21352601 190.34125541 126.01367188 202.70922852 C126.00013672 203.63405029 125.98660156 204.55887207 125.97265625 205.51171875 C125.95468994 206.33115967 125.93672363 207.15060059 125.91821289 207.99487305 C125.86561092 210.07321314 125.86561092 210.07321314 127 212 C128.88263881 212.90343684 128.88263881 212.90343684 131.0625 213.625 C131.79597656 213.88539063 132.52945312 214.14578125 133.28515625 214.4140625 C133.85105469 214.60742188 134.41695313 214.80078125 135 215 C135.24615385 230.50769231 135.24615385 230.50769231 133 235 C130.93359375 235.4140625 130.93359375 235.4140625 128.4375 235.625 C127.19806641 235.73714844 127.19806641 235.73714844 125.93359375 235.8515625 C124.97646484 235.92503906 124.97646484 235.92503906 124 236 C123.97421875 236.56203125 123.9484375 237.1240625 123.921875 237.703125 C123.4099776 245.2885138 121.96696626 252.58682619 120.37207031 260.00488281 C119.00222085 265.95133756 119.00222085 265.95133756 119 272 C121.21692394 273.66457328 121.21692394 273.66457328 124 275 C128.42141648 277.69598566 130.56221597 280.77007593 132.34765625 285.53125 C133.92811196 293.93511028 133.71841001 304.84476996 131 313 C130.34 313 129.68 313 129 313 C129 315.31 129 317.62 129 320 C128.34 320 127.68 320 127 320 C126.96261719 320.66386719 126.92523438 321.32773437 126.88671875 322.01171875 C126.20615582 331.15261302 126.20615582 331.15261302 123 335 C122.34 335 121.68 335 121 335 C120.90976562 335.64582031 120.81953125 336.29164063 120.7265625 336.95703125 C118.07227925 348.07362613 112.0751902 359.13470144 105 368 C104.57847656 368.6290625 104.15695312 369.258125 103.72265625 369.90625 C97.10033652 379.08490591 85.02871976 382.60692418 74.34765625 384.3515625 C66.9822603 385.34615976 59.24762094 385.40005697 52.0234375 383.47265625 C49.17052748 382.80624291 46.3624821 382.80188477 43.4375 382.6875 C36.64892867 382.22368457 31.1658931 380.82679669 25 378 C23.69675781 377.41798828 23.69675781 377.41798828 22.3671875 376.82421875 C16.53381184 373.94154477 11.54298051 370.26751548 6.5625 366.125 C5.97106201 365.64353516 5.37962402 365.16207031 4.77026367 364.66601562 C-2.69372229 358.2233947 -5.32964267 349.92702572 -6.2578125 340.3359375 C-6.55426259 333.31995192 -4.89755169 328.30467283 -2 322 C-1.36957911 320.33537624 -0.74457621 318.66869054 -0.125 317 C1.2399555 313.56371126 2.82545611 310.552468 4.8125 307.4375 C7.58163566 303.02353939 9.48346671 298.51744622 11.375 293.6875 C16.65359334 280.44234258 24.03043132 270.13349283 34 260 C34.81210937 259.11699219 35.62421875 258.23398437 36.4609375 257.32421875 C39.19862638 254.81818047 41.4916705 253.64737089 44.9375 252.3125 C45.93652344 251.91675781 46.93554688 251.52101563 47.96484375 251.11328125 C50.95884043 250.01509714 53.96847654 248.9894242 57 248 C56.835 247.319375 56.67 246.63875 56.5 245.9375 C55.6487779 240.93657016 55.2619976 237.39400453 57.6875 232.8125 C62.1300715 227.40937251 67.307207 224.67253127 73.4765625 221.5625 C76.09251042 220.16342148 76.09251042 220.16342148 77.5859375 217.8125 C78.05257813 217.214375 78.51921875 216.61625 79 216 C80.32 216 81.64 216 83 216 C82.360625 215.401875 81.72125 214.80375 81.0625 214.1875 C76.56100745 207.23064787 77.84255285 196.98427983 77.50653076 188.84040833 C76.78362894 171.34068543 75.87008324 154.14336695 72 137 C71.83693359 136.25314941 71.67386719 135.50629883 71.50585938 134.73681641 C62.55553812 95.39641031 35.59732589 63.2950803 2.20166016 42.24243164 C-3.5297488 38.73632916 -9.42332841 35.7277343 -15.5625 33 C-16.21750488 32.70883301 -16.87250977 32.41766602 -17.54736328 32.11767578 C-25.28497489 28.82834308 -32.53536633 28.81756247 -40.8125 28.8125 C-41.85470703 28.80025391 -42.89691406 28.78800781 -43.97070312 28.77539062 C-62.09684696 28.74125476 -72.42577279 36.87423631 -85 49 C-85.80566406 49.73089844 -86.61132812 50.46179688 -87.44140625 51.21484375 C-111.97522185 74.12729415 -120.69081685 111.34873596 -121.91430664 143.62304688 C-122.1851586 154.76095932 -121.62607016 165.88239383 -121 177 C-120.93377441 178.23508301 -120.93377441 178.23508301 -120.86621094 179.49511719 C-120.46564279 187.82011626 -120.46564279 187.82011626 -119 196 C-118.87794671 198.67540816 -118.95532687 201.31961238 -119 204 C-118.071875 204.37125 -118.071875 204.37125 -117.125 204.75 C-114.55618015 206.2610705 -114.09422453 207.26443867 -113 210 C-112.734375 212.25390625 -112.734375 212.25390625 -112.75 214.5625 C-112.74226563 215.70912109 -112.74226563 215.70912109 -112.734375 216.87890625 C-113 219 -113 219 -115 222 C-115.66 222 -116.32 222 -117 222 C-117 222.66 -117 223.32 -117 224 C-118.60256108 224.50512244 -120.20711792 225.00391627 -121.8125 225.5 C-122.70582031 225.7784375 -123.59914062 226.056875 -124.51953125 226.34375 C-127 227 -127 227 -130 227 C-130.433125 228.175625 -130.433125 228.175625 -130.875 229.375 C-132 232 -132 232 -134 234 C-134.12424085 239.1767022 -132.84732153 244.19696402 -131 249 C-130.3709375 248.66226563 -129.741875 248.32453125 -129.09375 247.9765625 C-128.2378125 247.53054688 -127.381875 247.08453125 -126.5 246.625 C-125.6646875 246.18414062 -124.829375 245.74328125 -123.96875 245.2890625 C-116.30604093 241.96183356 -109.1902972 241.64446796 -100.9375 241.6875 C-99.83075928 241.69241455 -98.72401855 241.6973291 -97.58374023 241.70239258 C-79.50321157 241.9599876 -65.83282347 245.81700318 -53 259 C-45.70999823 267.00274637 -39.85889842 275.93879444 -34 285 C-33.20484667 286.21642021 -32.40928208 287.43257171 -31.61328125 288.6484375 C-29.37582541 292.07870142 -27.18117244 295.5336386 -25 299 C-24.34773437 300.02996094 -23.69546875 301.05992187 -23.0234375 302.12109375 C-15.82880294 313.89274051 -11.56281997 325.65509859 -14.5546875 339.58203125 C-18.37051095 350.53889573 -26.4729554 362.36771126 -36 369 C-37.06734375 369.79277344 -37.06734375 369.79277344 -38.15625 370.6015625 C-45.47373921 375.55306353 -53.48387318 377.20379459 -62 379 C-62 379.66 -62 380.32 -62 381 C-64.37407592 381.64939736 -66.7491639 382.29460053 -69.125 382.9375 C-69.79015625 383.11990234 -70.4553125 383.30230469 -71.140625 383.49023438 C-79.46449697 385.73441554 -87.17042956 386.21135329 -95.75 386.25 C-96.87921875 386.270625 -98.0084375 386.29125 -99.171875 386.3125 C-113.07475086 386.37686517 -122.55835968 382.38838089 -132.5625 372.8125 C-138.49406722 366.6635455 -143.39858769 359.81282584 -147.6875 352.4375 C-149.69456247 349.09915367 -151.28620899 348.27050745 -155 347 C-157.51440726 344.03659145 -158.1013591 341.69717029 -158.3125 337.9375 C-158.71851935 332.64159538 -160.96841312 328.67328461 -163.52734375 324.08984375 C-168.07954089 314.53868211 -169.59341876 301.08528482 -167.1875 290.75 C-165.35504008 285.64716902 -161.82411822 281.52954939 -158.31713867 277.46386719 C-155.66882612 274.51108111 -155.66882612 274.51108111 -155.14453125 270.75390625 C-155.42683594 270.17511719 -155.70914063 269.59632813 -156 269 C-157.29050445 265.98882294 -158.21975528 263.14594853 -158.87109375 259.9453125 C-159.97268742 254.87306058 -161.50921389 249.99103418 -163.125 245.0625 C-163.67186602 243.38756385 -164.21626493 241.71181953 -164.7578125 240.03515625 C-164.9964502 239.3069165 -165.23508789 238.57867676 -165.48095703 237.82836914 C-166 236 -166 236 -166 234 C-166.66 234.33 -167.32 234.66 -168 235 C-169.70702735 235.06996014 -171.41668003 235.08440154 -173.125 235.0625 C-174.03507812 235.05347656 -174.94515625 235.04445313 -175.8828125 235.03515625 C-176.58148438 235.02355469 -177.28015625 235.01195312 -178 235 C-177.34 234.67 -176.68 234.34 -176 234 C-176.30035156 232.89140625 -176.60070312 231.7828125 -176.91015625 230.640625 C-177.29477053 229.17721457 -177.67885757 227.7136655 -178.0625 226.25 C-178.26166016 225.52039063 -178.46082031 224.79078125 -178.66601562 224.0390625 C-179.68779294 220.09536057 -180.00917431 218.03669724 -179 214 C-175.04 213.01 -175.04 213.01 -171 212 C-171.12117188 211.09983154 -171.24234375 210.19966309 -171.3671875 209.2722168 C-175.39140012 178.97647383 -175.39140012 178.97647383 -175.4375 167.75 C-175.44716797 167.01483154 -175.45683594 166.27966309 -175.46679688 165.5222168 C-175.39565349 161.15579163 -174.50054903 158.54601086 -172 155 C-170.21411268 151.95855537 -169.75194842 149.75285903 -169.7265625 146.23828125 C-169.70883789 145.29654053 -169.69111328 144.3547998 -169.67285156 143.38452148 C-169.65706055 142.37075439 -169.64126953 141.3569873 -169.625 140.3125 C-169.08748473 122.16027696 -166.88778186 103.91639226 -160 87 C-159.72172363 86.29858887 -159.44344727 85.59717773 -159.15673828 84.87451172 C-145.7990921 51.53457817 -120.0897494 24.26252603 -87 10 C-57.9897381 -1.41593009 -30.74303926 -6.42991671 0 0 Z M63 235 C61.69480187 238.78507459 61.74629903 240.766425 62.5390625 244.62109375 C63.85523319 247.36926818 63.85523319 247.36926818 67.3515625 247.93359375 C68.77388332 248.11895253 70.19870018 248.28576598 71.625 248.4375 C80.66188988 249.68010885 88.60933491 252.5104771 97 256 C97.33848652 254.10507994 97.67056911 252.20901534 98 250.3125 C98.2784375 248.72888672 98.2784375 248.72888672 98.5625 247.11328125 C98.95068074 244.35095938 99.08259976 241.78257957 99 239 C97.85724609 238.72736328 97.85724609 238.72736328 96.69140625 238.44921875 C93.45312443 237.66087299 90.22545668 236.83923753 87 236 C86.11054688 235.77183594 85.22109375 235.54367187 84.3046875 235.30859375 C78.44425496 233.61622462 78.44425496 233.61622462 76.0625 230.3125 C75.711875 229.549375 75.36125 228.78625 75 228 C70.47956834 228 66.2254098 232.10221501 63 235 Z M-159 233 C-158.74379316 234.6065676 -158.46944129 236.2102483 -158.1875 237.8125 C-158.03667969 238.70582031 -157.88585937 239.59914063 -157.73046875 240.51953125 C-156.94604607 243.18321256 -156.11372201 244.25690322 -154 246 C-153.16094435 244.87926138 -152.32892169 243.75325453 -151.5 242.625 C-151.0359375 241.99851562 -150.571875 241.37203125 -150.09375 240.7265625 C-148.82161899 239.05905387 -148.82161899 239.05905387 -149 237 C-148.360625 236.7525 -147.72125 236.505 -147.0625 236.25 C-144.81258459 235.18437567 -144.81258459 235.18437567 -144.25 232.875 C-144.1675 232.25625 -144.085 231.6375 -144 231 C-149.27203646 230.72963916 -153.92523206 231.73694665 -159 233 Z M110.9375 238 C110.01839844 238.185625 109.09929687 238.37125 108.15234375 238.5625 C107.08693359 238.7790625 107.08693359 238.7790625 106 239 C103.72005699 245.83982904 102.92951016 252.87045933 102 260 C103.26538369 260.84158536 104.53753779 261.67299748 105.8125 262.5 C106.87404297 263.19609375 106.87404297 263.19609375 107.95703125 263.90625 C110.05458124 265.23599375 110.05458124 265.23599375 113 265 C113.67753075 261.64793462 114.3400352 258.29306425 115 254.9375 C115.28617187 253.52307617 115.28617187 253.52307617 115.578125 252.08007812 C116.57847138 246.95330295 117.231817 242.22312681 117 237 C114.96217851 237 112.92505081 237.59745806 110.9375 238 Z M-143 241 C-144.01593396 242.22030551 -144.98776493 243.47749434 -145.9375 244.75 C-146.46214844 245.44609375 -146.98679687 246.1421875 -147.52734375 246.859375 C-150.67119532 251.4292176 -151.38825093 254.37036146 -151 260 C-150.08885464 263.32186171 -150.08885464 263.32186171 -149 266 C-145.6778653 264.5376608 -143.30686017 262.69193394 -140.6875 260.1875 C-139.96949219 259.52105469 -139.25148438 258.85460937 -138.51171875 258.16796875 C-136.74254044 256.10703858 -136.74254044 256.10703858 -137.140625 253.5703125 C-138.03356017 250.89962458 -138.98668879 248.29026906 -140.0625 245.6875 C-140.42472656 244.80449219 -140.78695312 243.92148437 -141.16015625 243.01171875 C-141.43730469 242.34785156 -141.71445313 241.68398438 -142 241 C-142.33 241 -142.66 241 -143 241 Z " fill="#CA1412" transform="translate(280,65)"/>
</svg>
